<svg width="63" height="19" viewBox="0 0 63 19" fill="none" xmlns="http://www.w3.org/2000/svg">
<g clip-path="url(#clip0_1408_257)">
<path d="M10.627 3.65511C11.2421 2.88907 11.6497 1.87024 11.5497 0.84375C10.65 0.889712 9.56582 1.4336 8.92759 2.18432C8.35857 2.82779 7.85106 3.90024 7.99716 4.88843C8.99679 4.98802 10.0041 4.39817 10.627 3.65511V3.65511ZM12.8415 10.1894C12.8185 7.96025 14.6716 6.91077 14.7562 6.84183C13.7181 5.30209 12.088 5.1259 11.5343 5.09526C10.081 5.011 8.85838 5.91492 8.15864 5.91492C7.4589 5.91492 6.40543 5.14122 5.2597 5.14888C3.76025 5.17187 2.33 6.02217 1.56875 7.36274C8.91473e-05 10.0439 1.20734 14.0273 2.72986 16.1952C3.47574 17.2753 4.36003 18.4779 5.52114 18.4243C6.62843 18.3784 7.06673 17.7043 8.39701 17.7043C9.7273 17.7043 10.1271 18.4243 11.296 18.4013C12.5109 18.3784 13.2798 17.3212 13.995 16.2411C14.8408 15.0078 15.1868 13.8358 15.2099 13.7592C15.1868 13.7285 12.8646 12.8322 12.8415 10.1894V10.1894ZM38.2245 6.24432C35.3025 6.24432 33.4724 7.79172 33.334 9.9213H35.6255C35.8408 8.86417 36.7251 8.21304 38.1246 8.21304C39.6087 8.21304 40.5083 9.00206 40.5083 10.312V11.2312L37.2634 11.4151C34.449 11.5683 32.8496 12.8476 32.8496 14.9082C32.8496 17.0378 34.4798 18.4703 36.7866 18.4703C38.3399 18.4703 39.8547 17.6353 40.5391 16.3177H40.616V18.2711H42.9228V10.1435C42.9305 7.76874 41.1004 6.24432 38.2245 6.24432V6.24432ZM40.5083 13.8587C40.5083 15.3985 39.178 16.5629 37.4787 16.5629C36.1715 16.5629 35.3102 15.8964 35.3102 14.8469C35.3102 13.8358 36.133 13.1923 37.6017 13.0927L40.516 12.9165V13.8587H40.5083ZM60.5395 2.03111V8.42753H60.5087C59.8397 7.12526 58.471 6.2673 56.7716 6.2673C53.7958 6.2673 51.8042 8.64202 51.8042 12.365C51.8042 16.0879 53.7958 18.4779 56.7947 18.4779C58.5248 18.4779 59.8782 17.6047 60.5779 16.2564L60.6163 16.2871V18.2788H63.0001V2.03111H60.5395ZM57.4329 16.4173C55.4951 16.4173 54.311 14.8546 54.311 12.365C54.311 9.883 55.5259 8.31262 57.4329 8.31262C59.3091 8.31262 60.5471 9.9213 60.5471 12.365C60.5548 14.8393 59.3091 16.4173 57.4329 16.4173ZM47.6672 8.47349H47.6211V6.39753H45.3143V18.2711H47.7749V11.2006C47.7749 9.52296 48.6823 8.48881 50.2509 8.48881C50.72 8.48881 51.1967 8.55009 51.389 8.61904V6.35923C51.2121 6.32092 50.8661 6.2673 50.5124 6.2673C49.1206 6.2673 48.0594 7.08696 47.6672 8.47349V8.47349ZM24.791 16.3484C21.8075 16.3484 19.9082 13.966 19.9082 10.1664C19.9082 6.42051 21.8306 3.99983 24.7756 3.99983C26.9902 3.99983 28.7126 5.40168 29.174 7.46998H31.6731C31.2502 4.09941 28.4666 1.79364 24.7756 1.79364C20.2311 1.79364 17.3322 5.02632 17.3322 10.1588C17.3322 15.3295 20.2081 18.5316 24.7756 18.5316C28.5127 18.5316 31.0733 16.5475 31.6885 13.2153H29.174C28.6665 15.1916 27.0671 16.3484 24.791 16.3484V16.3484Z" fill="#CACACA"/>
</g>
<defs>
<clipPath id="clip0_1408_257">
<rect width="63" height="18" fill="white" transform="translate(0 0.691406)"/>
</clipPath>
</defs>
</svg>
