<svg width="173" height="24" viewBox="0 0 173 24" fill="none" xmlns="http://www.w3.org/2000/svg">
<g clip-path="url(#clip0_2108_11163)">
<path d="M122.683 21.3254H119.438V0H122.683V21.3254Z" fill="#42D3FF"/>
<path d="M88.2688 19.1957H85.0234V2.00439H88.2688V19.1957Z" fill="white"/>
<path d="M97.7208 19.1959C97.5716 18.9062 97.4635 18.5429 97.3965 18.1105C96.6138 18.984 95.5954 19.4208 94.3414 19.4208C93.1565 19.4208 92.1727 19.0791 91.3943 18.3916C90.6138 17.704 90.2246 16.8391 90.2246 15.7948C90.2246 14.5127 90.7003 13.5267 91.6516 12.8413C92.603 12.1537 93.9781 11.8078 95.777 11.8013H97.2646V11.1073C97.2646 10.5494 97.1219 10.0997 96.8343 9.76455C96.5468 9.42942 96.0949 9.26077 95.4743 9.26077C94.9295 9.26077 94.5014 9.39266 94.1922 9.65428C93.883 9.91591 93.7295 10.2727 93.7295 10.7289H90.4949C90.4949 10.0283 90.7111 9.37753 91.1435 8.78293C91.576 8.18618 92.1879 7.71915 92.9792 7.37969C93.7684 7.04023 94.657 6.87158 95.643 6.87158C97.1349 6.87158 98.3197 7.24564 99.1976 7.99591C100.075 8.74618 100.512 9.80131 100.512 11.157V16.4046C100.521 17.5527 100.681 18.4219 100.994 19.0121V19.2024H97.7252V19.1981L97.7208 19.1959ZM95.0441 16.9473C95.5197 16.9473 95.9608 16.8413 96.363 16.6294C96.7651 16.4154 97.0635 16.1321 97.2581 15.7732V13.691H96.0495C94.43 13.691 93.5673 14.251 93.4635 15.3689L93.4527 15.5591C93.4527 15.9613 93.5954 16.2943 93.8765 16.5559C94.1619 16.8175 94.5489 16.9494 95.0419 16.9494L95.0441 16.9473Z" fill="white"/>
<path d="M113.674 13.2541C113.674 15.1936 113.261 16.7071 112.431 17.7925C111.601 18.8779 110.446 19.4206 108.961 19.4206C107.648 19.4206 106.6 18.9168 105.815 17.9093L105.67 19.1979H102.76V2.00439H105.994V8.17088C106.74 7.29737 107.722 6.86061 108.937 6.86061C110.414 6.86061 111.573 7.40331 112.412 8.48872C113.253 9.57412 113.67 11.1028 113.67 13.0725V13.252L113.674 13.2541ZM110.44 13.0206C110.44 11.7968 110.245 10.9039 109.858 10.3395C109.471 9.7752 108.892 9.49412 108.124 9.49412C107.095 9.49412 106.386 9.91575 105.999 10.759V15.5374C106.394 16.3871 107.11 16.813 108.148 16.813C109.186 16.813 109.878 16.2984 110.208 15.2693C110.366 14.7763 110.442 14.026 110.442 13.0184L110.44 13.0206Z" fill="white"/>
<path d="M6.06615 19.5307C4.27372 19.5307 2.81426 18.9815 1.68777 17.881C0.559125 16.7804 -0.000875387 15.3145 -0.000875387 13.4831V13.1674C-0.0203348 12.028 0.22399 10.9015 0.710476 9.87231C1.14939 8.94474 1.84994 8.16636 2.72777 7.63447C3.6294 7.10258 4.66075 6.83015 5.70507 6.84961C7.37642 6.84961 8.69318 7.37717 9.65534 8.43231C10.6153 9.48744 11.0975 10.9815 11.1018 12.9188V14.2528H3.31372C3.41967 15.0528 3.7375 15.695 4.2694 16.1793C4.80129 16.6658 5.47156 16.9058 6.28669 16.9015C7.54507 16.9015 8.52886 16.4453 9.23804 15.535L10.8424 17.3318C10.3343 18.0388 9.64886 18.5988 8.85318 18.9534C7.9775 19.3469 7.02615 19.5437 6.06615 19.5285V19.5307ZM5.69426 9.48312C5.40021 9.47231 5.10615 9.52636 4.83372 9.64096C4.56129 9.75339 4.31696 9.92636 4.11804 10.1426C3.71588 10.5815 3.45858 11.2085 3.34399 12.0258H7.88669V11.7642C7.87156 11.042 7.67696 10.4799 7.30075 10.0777C6.92453 9.67555 6.38831 9.4788 5.69642 9.48312H5.69426Z" fill="white"/>
<path d="M16.6833 10.7264L18.7417 7.07666H22.2357L18.7546 13.0658L22.3784 19.3015H18.8757L16.6941 15.4594L14.5254 19.3015H11.0098L14.6379 13.0637L11.1763 7.07666H14.6703L16.6876 10.7264H16.6833Z" fill="white"/>
<path d="M33.8824 13.3037C33.8824 15.187 33.4543 16.6962 32.6002 17.8291C31.744 18.9621 30.5894 19.5286 29.1364 19.5308C27.9018 19.5308 26.9029 19.1005 26.1418 18.2421V24.0021H22.877V7.07454H25.904L26.0164 8.27887C26.8078 7.32968 27.8413 6.854 29.1126 6.854C30.6197 6.854 31.7915 7.41184 32.6283 8.52536C33.4651 9.64103 33.8845 11.1762 33.8824 13.1372V13.3016V13.3037ZM30.6153 13.0616C30.6153 11.9243 30.4143 11.0464 30.0121 10.4281C29.6099 9.80968 29.024 9.50049 28.2564 9.50265C27.2315 9.50265 26.5267 9.894 26.1418 10.6789V15.6886C26.544 16.4951 27.2553 16.8972 28.278 16.8929C29.837 16.8929 30.6153 15.6172 30.6153 13.0659V13.0616V13.0616Z" fill="white"/>
<path d="M38.4267 19.3015H35.1445V1.9458H38.4224L38.4267 19.3015Z" fill="white"/>
<path d="M39.6849 13.0791C39.6633 11.9591 39.9033 10.8477 40.3855 9.83367C40.8244 8.91475 41.5271 8.14935 42.4028 7.63043C43.2806 7.11151 44.299 6.85205 45.4601 6.85205C47.1098 6.85205 48.4568 7.35583 49.5012 8.36556C50.5455 9.37529 51.1271 10.7461 51.246 12.478L51.2698 13.3148C51.2698 15.1915 50.7487 16.6964 49.7044 17.8293C48.6601 18.9623 47.2547 19.5288 45.4882 19.531C43.726 19.531 42.3206 18.9666 41.272 17.8358C40.2233 16.705 39.6979 15.1677 39.6957 13.2239L39.6871 13.0791H39.6849ZM42.952 13.3104C42.952 14.4737 43.1703 15.3623 43.6071 15.9764C44.0439 16.5904 44.6687 16.8975 45.4839 16.8996C46.273 16.8996 46.8914 16.5969 47.3368 15.9893C47.7822 15.3818 48.0049 14.411 48.0049 13.0748C48.0049 11.9353 47.7822 11.051 47.3368 10.4239C46.8914 9.79692 46.2666 9.4834 45.4601 9.48556C44.6622 9.48556 44.0439 9.79692 43.6071 10.4196C43.1703 11.0423 42.952 12.0066 42.952 13.3126V13.3104Z" fill="white"/>
<path d="M59.221 10.1447C58.8318 10.0885 58.4404 10.0583 58.0469 10.0539C56.8101 10.0539 56.0015 10.4712 55.6166 11.308V19.3015H52.3496V7.07231H55.435L55.5258 8.53177C56.181 7.40744 57.0891 6.84528 58.2501 6.84528C58.5939 6.84312 58.9377 6.89285 59.2664 6.99231L59.221 10.1447Z" fill="white"/>
<path d="M65.2849 19.531C63.4925 19.531 62.033 18.9818 60.9044 17.8812C59.7779 16.7807 59.2157 15.3148 59.2179 13.4856V13.1699C59.1984 12.0304 59.4427 10.9039 59.9292 9.87475C60.3681 8.94718 61.0687 8.1688 61.9465 7.63691C62.8481 7.10502 63.8795 6.83259 64.9238 6.85205C66.5952 6.85205 67.9119 7.37962 68.8719 8.43475C69.8319 9.48989 70.3141 10.9839 70.3184 12.9212V14.2553H62.5325C62.6384 15.0553 62.9563 15.6975 63.4881 16.1818C64.0179 16.6683 64.6903 16.9083 65.5054 16.9039C66.7638 16.9039 67.7476 16.4477 68.4568 15.5375L70.0611 17.3342C69.553 18.0412 68.8676 18.6012 68.0719 18.9558C67.1963 19.3493 66.2449 19.5461 65.2849 19.531V19.531ZM64.913 9.4834C64.619 9.47475 64.3271 9.5288 64.0546 9.6434C63.7822 9.75799 63.54 9.9288 63.3411 10.145C62.939 10.5839 62.6817 11.211 62.5671 12.0283H67.1098V11.7666C67.0946 11.0445 66.9 10.4823 66.5238 10.0802C66.1476 9.67799 65.6114 9.47908 64.913 9.4834V9.4834Z" fill="white"/>
<path d="M78.1099 10.1447C77.7207 10.0885 77.3271 10.0583 76.9336 10.0539C75.6969 10.0539 74.8882 10.4712 74.5034 11.308V19.3015H71.2363V7.07231H74.3217L74.4125 8.53177C75.0677 7.40744 75.9758 6.84528 77.1369 6.84528C77.4807 6.84312 77.8244 6.89285 78.1531 6.99231L78.1077 10.1447H78.1099Z" fill="white"/>
<path d="M132.471 8.30273H133.799V13.6844C133.799 14.4195 133.57 15.0033 133.111 15.4357C132.653 15.8681 132.048 16.0844 131.295 16.0844C130.493 16.0844 129.875 15.8833 129.44 15.479C129.003 15.0746 128.787 14.5125 128.787 13.7925H130.115C130.115 14.2011 130.216 14.506 130.417 14.7114C130.618 14.9168 130.913 15.0206 131.295 15.0206C131.654 15.0206 131.94 14.9017 132.151 14.6638C132.363 14.426 132.471 14.0995 132.471 13.68V8.30273V8.30273Z" fill="#C4C4CC"/>
<path d="M140.416 14.0022C140.416 13.6649 140.297 13.4054 140.059 13.2216C139.821 13.04 139.393 12.8541 138.775 12.6681C138.156 12.4822 137.663 12.2746 137.298 12.0454C136.599 11.6065 136.249 11.0335 136.249 10.3265C136.249 9.70813 136.502 9.19786 137.006 8.79786C137.51 8.39786 138.165 8.19678 138.969 8.19678C139.503 8.19678 139.979 8.29624 140.398 8.49299C140.816 8.68975 141.144 8.97083 141.384 9.33407C141.622 9.69732 141.743 10.1016 141.743 10.5449H140.416C140.416 10.1449 140.29 9.83137 140.039 9.60434C139.789 9.37732 139.43 9.26489 138.96 9.26489C138.524 9.26489 138.186 9.35786 137.946 9.5438C137.706 9.72975 137.585 9.98921 137.585 10.3243C137.585 10.6054 137.715 10.8411 137.975 11.027C138.234 11.2152 138.664 11.3989 139.261 11.5762C139.858 11.7535 140.338 11.9568 140.701 12.1816C141.062 12.4087 141.328 12.6681 141.497 12.9622C141.665 13.2562 141.75 13.6 141.75 13.9935C141.75 14.6335 141.505 15.1416 141.015 15.52C140.524 15.8984 139.86 16.0865 139.019 16.0865C138.463 16.0865 137.953 15.9827 137.488 15.7773C137.023 15.5719 136.66 15.2887 136.403 14.9254C136.145 14.5643 136.016 14.1427 136.016 13.6606H137.35C137.35 14.0973 137.495 14.4346 137.782 14.6725C138.07 14.9125 138.483 15.0314 139.021 15.0314C139.486 15.0314 139.834 14.9384 140.068 14.7503C140.301 14.5622 140.418 14.3135 140.418 14.0043L140.416 14.0022Z" fill="#C4C4CC"/>
<path d="M147.766 15.9784V8.30273H150.032C150.711 8.30273 151.312 8.45409 151.837 8.75679C152.363 9.05949 152.769 9.4876 153.057 10.0433C153.344 10.599 153.489 11.2346 153.489 11.9525V12.3373C153.489 13.0638 153.344 13.7038 153.054 14.2573C152.765 14.8087 152.352 15.2346 151.816 15.533C151.279 15.8314 150.665 15.9806 149.973 15.9806H147.764L147.766 15.9784ZM149.1 9.37733V14.9125H149.969C150.667 14.9125 151.206 14.6941 151.58 14.2552C151.954 13.8184 152.144 13.1892 152.153 12.3698V11.9417C152.153 11.1092 151.971 10.4735 151.61 10.0325C151.249 9.59355 150.724 9.373 150.034 9.373H149.1V9.37733Z" fill="#C4C4CC"/>
<path d="M162.026 12.3419C162.026 13.0944 161.896 13.7538 161.637 14.3225C161.377 14.8889 161.005 15.3257 160.521 15.6306C160.037 15.9354 159.481 16.0868 158.852 16.0868C158.223 16.0868 157.676 15.9354 157.189 15.6306C156.703 15.3257 156.327 14.8933 156.061 14.3311C155.795 13.7689 155.661 13.1203 155.656 12.3852V11.9527C155.656 11.2046 155.788 10.543 156.054 9.97003C156.32 9.39706 156.694 8.95814 157.176 8.65544C157.658 8.35057 158.214 8.19922 158.839 8.19922C159.464 8.19922 160.02 8.35057 160.502 8.64895C160.984 8.94733 161.358 9.38192 161.622 9.94625C161.885 10.5106 162.019 11.1657 162.022 11.916V12.3441L162.026 12.3419ZM160.692 11.9419C160.692 11.0922 160.532 10.4392 160.21 9.98516C159.888 9.53111 159.431 9.30408 158.841 9.30408C158.251 9.30408 157.814 9.52895 157.49 9.98084C157.165 10.4327 156.999 11.0706 156.992 11.8965V12.3398C156.992 13.183 157.157 13.836 157.485 14.2965C157.814 14.7571 158.27 14.9862 158.854 14.9862C159.438 14.9862 159.898 14.7614 160.216 14.3117C160.534 13.8619 160.694 13.2046 160.694 12.3398V11.9398L160.692 11.9419Z" fill="#C4C4CC"/>
<path d="M166.165 8.30273L168.379 14.186L170.589 8.30273H172.312V15.9784H170.984V13.4487L171.116 10.0649L168.85 15.9806H167.897L165.635 10.0714L165.767 13.4508V15.9806H164.439V8.30273H166.169H166.165Z" fill="#C4C4CC"/>
</g>
<defs>
<clipPath id="clip0_2108_11163">
<rect width="172.311" height="24" fill="white"/>
</clipPath>
</defs>
</svg>
